<mxfile host="app.diagrams.net" modified="2020-10-06T17:49:42.183Z" agent="5.0 (Windows NT 10.0; Win64; x64) AppleWebKit/537.36 (KHTML, like Gecko) Chrome/85.0.4183.121 Safari/537.36" etag="AQwFG8w_BO87G1sfcP33" version="13.7.7" type="github">
  <diagram id="R2lEEEUBdFMjLlhIrx00" name="Page-1">
    <mxGraphModel dx="2318" dy="831" grid="1" gridSize="10" guides="1" tooltips="1" connect="1" arrows="1" fold="1" page="1" pageScale="1" pageWidth="850" pageHeight="1100" math="0" shadow="0" extFonts="Permanent Marker^https://fonts.googleapis.com/css?family=Permanent+Marker">
      <root>
        <mxCell id="0" />
        <mxCell id="1" parent="0" />
        <mxCell id="dXiA9VWXQi0BpHhHrtjM-129" value="Тренажерный зал" style="shape=table;startSize=30;container=1;collapsible=1;childLayout=tableLayout;fixedRows=1;rowLines=0;fontStyle=1;align=center;resizeLast=1;" vertex="1" parent="1">
          <mxGeometry x="100" y="40" width="180" height="150" as="geometry" />
        </mxCell>
        <mxCell id="dXiA9VWXQi0BpHhHrtjM-130" value="" style="shape=partialRectangle;collapsible=0;dropTarget=0;pointerEvents=0;fillColor=none;top=0;left=0;bottom=1;right=0;points=[[0,0.5],[1,0.5]];portConstraint=eastwest;" vertex="1" parent="dXiA9VWXQi0BpHhHrtjM-129">
          <mxGeometry y="30" width="180" height="30" as="geometry" />
        </mxCell>
        <mxCell id="dXiA9VWXQi0BpHhHrtjM-131" value="" style="shape=partialRectangle;connectable=0;fillColor=none;top=0;left=0;bottom=0;right=0;fontStyle=1;overflow=hidden;" vertex="1" parent="dXiA9VWXQi0BpHhHrtjM-130">
          <mxGeometry width="30" height="30" as="geometry" />
        </mxCell>
        <mxCell id="dXiA9VWXQi0BpHhHrtjM-132" value="Код зала" style="shape=partialRectangle;connectable=0;fillColor=none;top=0;left=0;bottom=0;right=0;align=left;spacingLeft=6;fontStyle=5;overflow=hidden;" vertex="1" parent="dXiA9VWXQi0BpHhHrtjM-130">
          <mxGeometry x="30" width="150" height="30" as="geometry" />
        </mxCell>
        <mxCell id="dXiA9VWXQi0BpHhHrtjM-133" value="" style="shape=partialRectangle;collapsible=0;dropTarget=0;pointerEvents=0;fillColor=none;top=0;left=0;bottom=0;right=0;points=[[0,0.5],[1,0.5]];portConstraint=eastwest;" vertex="1" parent="dXiA9VWXQi0BpHhHrtjM-129">
          <mxGeometry y="60" width="180" height="30" as="geometry" />
        </mxCell>
        <mxCell id="dXiA9VWXQi0BpHhHrtjM-134" value="" style="shape=partialRectangle;connectable=0;fillColor=none;top=0;left=0;bottom=0;right=0;editable=1;overflow=hidden;" vertex="1" parent="dXiA9VWXQi0BpHhHrtjM-133">
          <mxGeometry width="30" height="30" as="geometry" />
        </mxCell>
        <mxCell id="dXiA9VWXQi0BpHhHrtjM-135" value="Цена абонемента" style="shape=partialRectangle;connectable=0;fillColor=none;top=0;left=0;bottom=0;right=0;align=left;spacingLeft=6;overflow=hidden;" vertex="1" parent="dXiA9VWXQi0BpHhHrtjM-133">
          <mxGeometry x="30" width="150" height="30" as="geometry" />
        </mxCell>
        <mxCell id="dXiA9VWXQi0BpHhHrtjM-136" value="" style="shape=partialRectangle;collapsible=0;dropTarget=0;pointerEvents=0;fillColor=none;top=0;left=0;bottom=0;right=0;points=[[0,0.5],[1,0.5]];portConstraint=eastwest;" vertex="1" parent="dXiA9VWXQi0BpHhHrtjM-129">
          <mxGeometry y="90" width="180" height="30" as="geometry" />
        </mxCell>
        <mxCell id="dXiA9VWXQi0BpHhHrtjM-137" value="" style="shape=partialRectangle;connectable=0;fillColor=none;top=0;left=0;bottom=0;right=0;editable=1;overflow=hidden;" vertex="1" parent="dXiA9VWXQi0BpHhHrtjM-136">
          <mxGeometry width="30" height="30" as="geometry" />
        </mxCell>
        <mxCell id="dXiA9VWXQi0BpHhHrtjM-138" value="Бассейн" style="shape=partialRectangle;connectable=0;fillColor=none;top=0;left=0;bottom=0;right=0;align=left;spacingLeft=6;overflow=hidden;" vertex="1" parent="dXiA9VWXQi0BpHhHrtjM-136">
          <mxGeometry x="30" width="150" height="30" as="geometry" />
        </mxCell>
        <mxCell id="dXiA9VWXQi0BpHhHrtjM-139" value="" style="shape=partialRectangle;collapsible=0;dropTarget=0;pointerEvents=0;fillColor=none;top=0;left=0;bottom=0;right=0;points=[[0,0.5],[1,0.5]];portConstraint=eastwest;" vertex="1" parent="dXiA9VWXQi0BpHhHrtjM-129">
          <mxGeometry y="120" width="180" height="30" as="geometry" />
        </mxCell>
        <mxCell id="dXiA9VWXQi0BpHhHrtjM-140" value="" style="shape=partialRectangle;connectable=0;fillColor=none;top=0;left=0;bottom=0;right=0;editable=1;overflow=hidden;" vertex="1" parent="dXiA9VWXQi0BpHhHrtjM-139">
          <mxGeometry width="30" height="30" as="geometry" />
        </mxCell>
        <mxCell id="dXiA9VWXQi0BpHhHrtjM-141" value="" style="shape=partialRectangle;connectable=0;fillColor=none;top=0;left=0;bottom=0;right=0;align=left;spacingLeft=6;overflow=hidden;" vertex="1" parent="dXiA9VWXQi0BpHhHrtjM-139">
          <mxGeometry x="30" width="150" height="30" as="geometry" />
        </mxCell>
        <mxCell id="dXiA9VWXQi0BpHhHrtjM-116" value="Тренер" style="shape=table;startSize=30;container=1;collapsible=1;childLayout=tableLayout;fixedRows=1;rowLines=0;fontStyle=1;align=center;resizeLast=1;" vertex="1" parent="1">
          <mxGeometry x="440" y="40" width="180" height="150" as="geometry" />
        </mxCell>
        <mxCell id="dXiA9VWXQi0BpHhHrtjM-117" value="" style="shape=partialRectangle;collapsible=0;dropTarget=0;pointerEvents=0;fillColor=none;top=0;left=0;bottom=1;right=0;points=[[0,0.5],[1,0.5]];portConstraint=eastwest;" vertex="1" parent="dXiA9VWXQi0BpHhHrtjM-116">
          <mxGeometry y="30" width="180" height="30" as="geometry" />
        </mxCell>
        <mxCell id="dXiA9VWXQi0BpHhHrtjM-118" value="" style="shape=partialRectangle;connectable=0;fillColor=none;top=0;left=0;bottom=0;right=0;fontStyle=1;overflow=hidden;" vertex="1" parent="dXiA9VWXQi0BpHhHrtjM-117">
          <mxGeometry width="30" height="30" as="geometry" />
        </mxCell>
        <mxCell id="dXiA9VWXQi0BpHhHrtjM-119" value="Код тренера" style="shape=partialRectangle;connectable=0;fillColor=none;top=0;left=0;bottom=0;right=0;align=left;spacingLeft=6;fontStyle=5;overflow=hidden;" vertex="1" parent="dXiA9VWXQi0BpHhHrtjM-117">
          <mxGeometry x="30" width="150" height="30" as="geometry" />
        </mxCell>
        <mxCell id="dXiA9VWXQi0BpHhHrtjM-120" value="" style="shape=partialRectangle;collapsible=0;dropTarget=0;pointerEvents=0;fillColor=none;top=0;left=0;bottom=0;right=0;points=[[0,0.5],[1,0.5]];portConstraint=eastwest;" vertex="1" parent="dXiA9VWXQi0BpHhHrtjM-116">
          <mxGeometry y="60" width="180" height="30" as="geometry" />
        </mxCell>
        <mxCell id="dXiA9VWXQi0BpHhHrtjM-121" value="" style="shape=partialRectangle;connectable=0;fillColor=none;top=0;left=0;bottom=0;right=0;editable=1;overflow=hidden;" vertex="1" parent="dXiA9VWXQi0BpHhHrtjM-120">
          <mxGeometry width="30" height="30" as="geometry" />
        </mxCell>
        <mxCell id="dXiA9VWXQi0BpHhHrtjM-122" value="ФИО" style="shape=partialRectangle;connectable=0;fillColor=none;top=0;left=0;bottom=0;right=0;align=left;spacingLeft=6;overflow=hidden;" vertex="1" parent="dXiA9VWXQi0BpHhHrtjM-120">
          <mxGeometry x="30" width="150" height="30" as="geometry" />
        </mxCell>
        <mxCell id="dXiA9VWXQi0BpHhHrtjM-123" value="" style="shape=partialRectangle;collapsible=0;dropTarget=0;pointerEvents=0;fillColor=none;top=0;left=0;bottom=0;right=0;points=[[0,0.5],[1,0.5]];portConstraint=eastwest;" vertex="1" parent="dXiA9VWXQi0BpHhHrtjM-116">
          <mxGeometry y="90" width="180" height="20" as="geometry" />
        </mxCell>
        <mxCell id="dXiA9VWXQi0BpHhHrtjM-124" value="" style="shape=partialRectangle;connectable=0;fillColor=none;top=0;left=0;bottom=0;right=0;editable=1;overflow=hidden;" vertex="1" parent="dXiA9VWXQi0BpHhHrtjM-123">
          <mxGeometry width="30" height="20" as="geometry" />
        </mxCell>
        <mxCell id="dXiA9VWXQi0BpHhHrtjM-125" value="Стаж преподавания" style="shape=partialRectangle;connectable=0;fillColor=none;top=0;left=0;bottom=0;right=0;align=left;spacingLeft=6;overflow=hidden;" vertex="1" parent="dXiA9VWXQi0BpHhHrtjM-123">
          <mxGeometry x="30" width="150" height="20" as="geometry" />
        </mxCell>
        <mxCell id="dXiA9VWXQi0BpHhHrtjM-126" value="" style="shape=partialRectangle;collapsible=0;dropTarget=0;pointerEvents=0;fillColor=none;top=0;left=0;bottom=0;right=0;points=[[0,0.5],[1,0.5]];portConstraint=eastwest;" vertex="1" parent="dXiA9VWXQi0BpHhHrtjM-116">
          <mxGeometry y="110" width="180" height="30" as="geometry" />
        </mxCell>
        <mxCell id="dXiA9VWXQi0BpHhHrtjM-127" value="" style="shape=partialRectangle;connectable=0;fillColor=none;top=0;left=0;bottom=0;right=0;editable=1;overflow=hidden;" vertex="1" parent="dXiA9VWXQi0BpHhHrtjM-126">
          <mxGeometry width="30" height="30" as="geometry" />
        </mxCell>
        <mxCell id="dXiA9VWXQi0BpHhHrtjM-128" value="Спортивный разряд" style="shape=partialRectangle;connectable=0;fillColor=none;top=0;left=0;bottom=0;right=0;align=left;spacingLeft=6;overflow=hidden;" vertex="1" parent="dXiA9VWXQi0BpHhHrtjM-126">
          <mxGeometry x="30" width="150" height="30" as="geometry" />
        </mxCell>
        <mxCell id="dXiA9VWXQi0BpHhHrtjM-232" value="" style="edgeStyle=entityRelationEdgeStyle;fontSize=12;html=1;endArrow=ERoneToMany;startArrow=ERzeroToOne;exitX=0.99;exitY=0.166;exitDx=0;exitDy=0;exitPerimeter=0;" edge="1" parent="1" source="dXiA9VWXQi0BpHhHrtjM-116" target="dXiA9VWXQi0BpHhHrtjM-195">
          <mxGeometry width="100" height="100" relative="1" as="geometry">
            <mxPoint x="370" y="110" as="sourcePoint" />
            <mxPoint x="500" y="360" as="targetPoint" />
          </mxGeometry>
        </mxCell>
        <mxCell id="dXiA9VWXQi0BpHhHrtjM-233" value="" style="edgeStyle=entityRelationEdgeStyle;fontSize=12;html=1;endArrow=ERoneToMany;startArrow=ERzeroToMany;" edge="1" parent="1" source="dXiA9VWXQi0BpHhHrtjM-149" target="dXiA9VWXQi0BpHhHrtjM-198">
          <mxGeometry width="100" height="100" relative="1" as="geometry">
            <mxPoint x="500" y="520" as="sourcePoint" />
            <mxPoint x="600" y="420" as="targetPoint" />
          </mxGeometry>
        </mxCell>
        <mxCell id="dXiA9VWXQi0BpHhHrtjM-235" value="" style="edgeStyle=entityRelationEdgeStyle;fontSize=12;html=1;endArrow=ERzeroToMany;endFill=1;startArrow=ERzeroToMany;entryX=0;entryY=0.5;entryDx=0;entryDy=0;exitX=1;exitY=0.5;exitDx=0;exitDy=0;" edge="1" parent="1" source="dXiA9VWXQi0BpHhHrtjM-162" target="dXiA9VWXQi0BpHhHrtjM-198">
          <mxGeometry width="100" height="100" relative="1" as="geometry">
            <mxPoint x="400" y="460" as="sourcePoint" />
            <mxPoint x="500" y="360" as="targetPoint" />
          </mxGeometry>
        </mxCell>
        <mxCell id="dXiA9VWXQi0BpHhHrtjM-142" value="Секции" style="shape=table;startSize=30;container=1;collapsible=1;childLayout=tableLayout;fixedRows=1;rowLines=0;fontStyle=1;align=center;resizeLast=1;" vertex="1" parent="1">
          <mxGeometry x="650" y="310" width="170" height="140" as="geometry" />
        </mxCell>
        <mxCell id="dXiA9VWXQi0BpHhHrtjM-143" value="" style="shape=partialRectangle;collapsible=0;dropTarget=0;pointerEvents=0;fillColor=none;top=0;left=0;bottom=1;right=0;points=[[0,0.5],[1,0.5]];portConstraint=eastwest;" vertex="1" parent="dXiA9VWXQi0BpHhHrtjM-142">
          <mxGeometry y="30" width="170" height="30" as="geometry" />
        </mxCell>
        <mxCell id="dXiA9VWXQi0BpHhHrtjM-144" value="" style="shape=partialRectangle;connectable=0;fillColor=none;top=0;left=0;bottom=0;right=0;fontStyle=1;overflow=hidden;" vertex="1" parent="dXiA9VWXQi0BpHhHrtjM-143">
          <mxGeometry width="30" height="30" as="geometry" />
        </mxCell>
        <mxCell id="dXiA9VWXQi0BpHhHrtjM-145" value="Название секции" style="shape=partialRectangle;connectable=0;fillColor=none;top=0;left=0;bottom=0;right=0;align=left;spacingLeft=6;fontStyle=5;overflow=hidden;" vertex="1" parent="dXiA9VWXQi0BpHhHrtjM-143">
          <mxGeometry x="30" width="140" height="30" as="geometry" />
        </mxCell>
        <mxCell id="dXiA9VWXQi0BpHhHrtjM-146" value="" style="shape=partialRectangle;collapsible=0;dropTarget=0;pointerEvents=0;fillColor=none;top=0;left=0;bottom=0;right=0;points=[[0,0.5],[1,0.5]];portConstraint=eastwest;" vertex="1" parent="dXiA9VWXQi0BpHhHrtjM-142">
          <mxGeometry y="60" width="170" height="30" as="geometry" />
        </mxCell>
        <mxCell id="dXiA9VWXQi0BpHhHrtjM-147" value="" style="shape=partialRectangle;connectable=0;fillColor=none;top=0;left=0;bottom=0;right=0;editable=1;overflow=hidden;" vertex="1" parent="dXiA9VWXQi0BpHhHrtjM-146">
          <mxGeometry width="30" height="30" as="geometry" />
        </mxCell>
        <mxCell id="dXiA9VWXQi0BpHhHrtjM-148" value="Количество групп" style="shape=partialRectangle;connectable=0;fillColor=none;top=0;left=0;bottom=0;right=0;align=left;spacingLeft=6;overflow=hidden;" vertex="1" parent="dXiA9VWXQi0BpHhHrtjM-146">
          <mxGeometry x="30" width="140" height="30" as="geometry" />
        </mxCell>
        <mxCell id="dXiA9VWXQi0BpHhHrtjM-149" value="" style="shape=partialRectangle;collapsible=0;dropTarget=0;pointerEvents=0;fillColor=none;top=0;left=0;bottom=0;right=0;points=[[0,0.5],[1,0.5]];portConstraint=eastwest;" vertex="1" parent="dXiA9VWXQi0BpHhHrtjM-142">
          <mxGeometry y="90" width="170" height="30" as="geometry" />
        </mxCell>
        <mxCell id="dXiA9VWXQi0BpHhHrtjM-150" value="" style="shape=partialRectangle;connectable=0;fillColor=none;top=0;left=0;bottom=0;right=0;editable=1;overflow=hidden;" vertex="1" parent="dXiA9VWXQi0BpHhHrtjM-149">
          <mxGeometry width="30" height="30" as="geometry" />
        </mxCell>
        <mxCell id="dXiA9VWXQi0BpHhHrtjM-151" value="Стоимость" style="shape=partialRectangle;connectable=0;fillColor=none;top=0;left=0;bottom=0;right=0;align=left;spacingLeft=6;overflow=hidden;" vertex="1" parent="dXiA9VWXQi0BpHhHrtjM-149">
          <mxGeometry x="30" width="140" height="30" as="geometry" />
        </mxCell>
        <mxCell id="dXiA9VWXQi0BpHhHrtjM-152" value="" style="shape=partialRectangle;collapsible=0;dropTarget=0;pointerEvents=0;fillColor=none;top=0;left=0;bottom=0;right=0;points=[[0,0.5],[1,0.5]];portConstraint=eastwest;" vertex="1" parent="dXiA9VWXQi0BpHhHrtjM-142">
          <mxGeometry y="120" width="170" height="20" as="geometry" />
        </mxCell>
        <mxCell id="dXiA9VWXQi0BpHhHrtjM-153" value="" style="shape=partialRectangle;connectable=0;fillColor=none;top=0;left=0;bottom=0;right=0;editable=1;overflow=hidden;" vertex="1" parent="dXiA9VWXQi0BpHhHrtjM-152">
          <mxGeometry width="30" height="20" as="geometry" />
        </mxCell>
        <mxCell id="dXiA9VWXQi0BpHhHrtjM-154" value="" style="shape=partialRectangle;connectable=0;fillColor=none;top=0;left=0;bottom=0;right=0;align=left;spacingLeft=6;overflow=hidden;" vertex="1" parent="dXiA9VWXQi0BpHhHrtjM-152">
          <mxGeometry x="30" width="140" height="20" as="geometry" />
        </mxCell>
        <mxCell id="dXiA9VWXQi0BpHhHrtjM-155" value="Лечебные процедуры" style="shape=table;startSize=30;container=1;collapsible=1;childLayout=tableLayout;fixedRows=1;rowLines=0;fontStyle=1;align=center;resizeLast=1;" vertex="1" parent="1">
          <mxGeometry x="-130" y="310" width="180" height="140" as="geometry" />
        </mxCell>
        <mxCell id="dXiA9VWXQi0BpHhHrtjM-156" value="" style="shape=partialRectangle;collapsible=0;dropTarget=0;pointerEvents=0;fillColor=none;top=0;left=0;bottom=1;right=0;points=[[0,0.5],[1,0.5]];portConstraint=eastwest;" vertex="1" parent="dXiA9VWXQi0BpHhHrtjM-155">
          <mxGeometry y="30" width="180" height="30" as="geometry" />
        </mxCell>
        <mxCell id="dXiA9VWXQi0BpHhHrtjM-157" value="" style="shape=partialRectangle;connectable=0;fillColor=none;top=0;left=0;bottom=0;right=0;fontStyle=1;overflow=hidden;" vertex="1" parent="dXiA9VWXQi0BpHhHrtjM-156">
          <mxGeometry width="30" height="30" as="geometry" />
        </mxCell>
        <mxCell id="dXiA9VWXQi0BpHhHrtjM-158" value="Название услуги" style="shape=partialRectangle;connectable=0;fillColor=none;top=0;left=0;bottom=0;right=0;align=left;spacingLeft=6;fontStyle=5;overflow=hidden;" vertex="1" parent="dXiA9VWXQi0BpHhHrtjM-156">
          <mxGeometry x="30" width="150" height="30" as="geometry" />
        </mxCell>
        <mxCell id="dXiA9VWXQi0BpHhHrtjM-159" value="" style="shape=partialRectangle;collapsible=0;dropTarget=0;pointerEvents=0;fillColor=none;top=0;left=0;bottom=0;right=0;points=[[0,0.5],[1,0.5]];portConstraint=eastwest;" vertex="1" parent="dXiA9VWXQi0BpHhHrtjM-155">
          <mxGeometry y="60" width="180" height="30" as="geometry" />
        </mxCell>
        <mxCell id="dXiA9VWXQi0BpHhHrtjM-160" value="" style="shape=partialRectangle;connectable=0;fillColor=none;top=0;left=0;bottom=0;right=0;editable=1;overflow=hidden;" vertex="1" parent="dXiA9VWXQi0BpHhHrtjM-159">
          <mxGeometry width="30" height="30" as="geometry" />
        </mxCell>
        <mxCell id="dXiA9VWXQi0BpHhHrtjM-161" value="Цена" style="shape=partialRectangle;connectable=0;fillColor=none;top=0;left=0;bottom=0;right=0;align=left;spacingLeft=6;overflow=hidden;" vertex="1" parent="dXiA9VWXQi0BpHhHrtjM-159">
          <mxGeometry x="30" width="150" height="30" as="geometry" />
        </mxCell>
        <mxCell id="dXiA9VWXQi0BpHhHrtjM-162" value="" style="shape=partialRectangle;collapsible=0;dropTarget=0;pointerEvents=0;fillColor=none;top=0;left=0;bottom=0;right=0;points=[[0,0.5],[1,0.5]];portConstraint=eastwest;" vertex="1" parent="dXiA9VWXQi0BpHhHrtjM-155">
          <mxGeometry y="90" width="180" height="30" as="geometry" />
        </mxCell>
        <mxCell id="dXiA9VWXQi0BpHhHrtjM-163" value="" style="shape=partialRectangle;connectable=0;fillColor=none;top=0;left=0;bottom=0;right=0;editable=1;overflow=hidden;" vertex="1" parent="dXiA9VWXQi0BpHhHrtjM-162">
          <mxGeometry width="30" height="30" as="geometry" />
        </mxCell>
        <mxCell id="dXiA9VWXQi0BpHhHrtjM-164" value="Первая помощь" style="shape=partialRectangle;connectable=0;fillColor=none;top=0;left=0;bottom=0;right=0;align=left;spacingLeft=6;overflow=hidden;" vertex="1" parent="dXiA9VWXQi0BpHhHrtjM-162">
          <mxGeometry x="30" width="150" height="30" as="geometry" />
        </mxCell>
        <mxCell id="dXiA9VWXQi0BpHhHrtjM-165" value="" style="shape=partialRectangle;collapsible=0;dropTarget=0;pointerEvents=0;fillColor=none;top=0;left=0;bottom=0;right=0;points=[[0,0.5],[1,0.5]];portConstraint=eastwest;" vertex="1" parent="dXiA9VWXQi0BpHhHrtjM-155">
          <mxGeometry y="120" width="180" height="20" as="geometry" />
        </mxCell>
        <mxCell id="dXiA9VWXQi0BpHhHrtjM-166" value="" style="shape=partialRectangle;connectable=0;fillColor=none;top=0;left=0;bottom=0;right=0;editable=1;overflow=hidden;" vertex="1" parent="dXiA9VWXQi0BpHhHrtjM-165">
          <mxGeometry width="30" height="20" as="geometry" />
        </mxCell>
        <mxCell id="dXiA9VWXQi0BpHhHrtjM-167" value="" style="shape=partialRectangle;connectable=0;fillColor=none;top=0;left=0;bottom=0;right=0;align=left;spacingLeft=6;overflow=hidden;" vertex="1" parent="dXiA9VWXQi0BpHhHrtjM-165">
          <mxGeometry x="30" width="150" height="20" as="geometry" />
        </mxCell>
        <mxCell id="dXiA9VWXQi0BpHhHrtjM-237" value="" style="edgeStyle=entityRelationEdgeStyle;fontSize=12;html=1;endArrow=ERoneToMany;startArrow=ERoneToMany;entryX=0;entryY=0.5;entryDx=0;entryDy=0;" edge="1" parent="1" source="dXiA9VWXQi0BpHhHrtjM-165" target="dXiA9VWXQi0BpHhHrtjM-185">
          <mxGeometry width="100" height="100" relative="1" as="geometry">
            <mxPoint x="-140" y="420" as="sourcePoint" />
            <mxPoint x="400" y="360" as="targetPoint" />
          </mxGeometry>
        </mxCell>
        <mxCell id="dXiA9VWXQi0BpHhHrtjM-181" value="Обсуживающий персонал" style="shape=table;startSize=40;container=1;collapsible=1;childLayout=tableLayout;fixedRows=1;rowLines=0;fontStyle=1;align=center;resizeLast=1;" vertex="1" parent="1">
          <mxGeometry x="90" y="640" width="180" height="150" as="geometry" />
        </mxCell>
        <mxCell id="dXiA9VWXQi0BpHhHrtjM-191" value="" style="shape=partialRectangle;collapsible=0;dropTarget=0;pointerEvents=0;fillColor=none;top=0;left=0;bottom=0;right=0;points=[[0,0.5],[1,0.5]];portConstraint=eastwest;" vertex="1" parent="dXiA9VWXQi0BpHhHrtjM-181">
          <mxGeometry y="40" width="180" height="30" as="geometry" />
        </mxCell>
        <mxCell id="dXiA9VWXQi0BpHhHrtjM-192" value="" style="shape=partialRectangle;connectable=0;fillColor=none;top=0;left=0;bottom=0;right=0;editable=1;overflow=hidden;" vertex="1" parent="dXiA9VWXQi0BpHhHrtjM-191">
          <mxGeometry width="30" height="30" as="geometry" />
        </mxCell>
        <mxCell id="dXiA9VWXQi0BpHhHrtjM-193" value="Количество вакансий" style="shape=partialRectangle;connectable=0;fillColor=none;top=0;left=0;bottom=0;right=0;align=left;spacingLeft=6;overflow=hidden;" vertex="1" parent="dXiA9VWXQi0BpHhHrtjM-191">
          <mxGeometry x="30" width="150" height="30" as="geometry" />
        </mxCell>
        <mxCell id="dXiA9VWXQi0BpHhHrtjM-182" value="" style="shape=partialRectangle;collapsible=0;dropTarget=0;pointerEvents=0;fillColor=none;top=0;left=0;bottom=1;right=0;points=[[0,0.5],[1,0.5]];portConstraint=eastwest;" vertex="1" parent="dXiA9VWXQi0BpHhHrtjM-181">
          <mxGeometry y="70" width="180" height="20" as="geometry" />
        </mxCell>
        <mxCell id="dXiA9VWXQi0BpHhHrtjM-183" value="" style="shape=partialRectangle;connectable=0;fillColor=none;top=0;left=0;bottom=0;right=0;fontStyle=1;overflow=hidden;" vertex="1" parent="dXiA9VWXQi0BpHhHrtjM-182">
          <mxGeometry width="30" height="20" as="geometry" />
        </mxCell>
        <mxCell id="dXiA9VWXQi0BpHhHrtjM-184" value="Код персонала" style="shape=partialRectangle;connectable=0;fillColor=none;top=0;left=0;bottom=0;right=0;align=left;spacingLeft=6;fontStyle=5;overflow=hidden;" vertex="1" parent="dXiA9VWXQi0BpHhHrtjM-182">
          <mxGeometry x="30" width="150" height="20" as="geometry" />
        </mxCell>
        <mxCell id="dXiA9VWXQi0BpHhHrtjM-185" value="" style="shape=partialRectangle;collapsible=0;dropTarget=0;pointerEvents=0;fillColor=none;top=0;left=0;bottom=0;right=0;points=[[0,0.5],[1,0.5]];portConstraint=eastwest;" vertex="1" parent="dXiA9VWXQi0BpHhHrtjM-181">
          <mxGeometry y="90" width="180" height="30" as="geometry" />
        </mxCell>
        <mxCell id="dXiA9VWXQi0BpHhHrtjM-186" value="" style="shape=partialRectangle;connectable=0;fillColor=none;top=0;left=0;bottom=0;right=0;editable=1;overflow=hidden;" vertex="1" parent="dXiA9VWXQi0BpHhHrtjM-185">
          <mxGeometry width="30" height="30" as="geometry" />
        </mxCell>
        <mxCell id="dXiA9VWXQi0BpHhHrtjM-187" value="Должность" style="shape=partialRectangle;connectable=0;fillColor=none;top=0;left=0;bottom=0;right=0;align=left;spacingLeft=6;overflow=hidden;" vertex="1" parent="dXiA9VWXQi0BpHhHrtjM-185">
          <mxGeometry x="30" width="150" height="30" as="geometry" />
        </mxCell>
        <mxCell id="dXiA9VWXQi0BpHhHrtjM-188" value="" style="shape=partialRectangle;collapsible=0;dropTarget=0;pointerEvents=0;fillColor=none;top=0;left=0;bottom=0;right=0;points=[[0,0.5],[1,0.5]];portConstraint=eastwest;" vertex="1" parent="dXiA9VWXQi0BpHhHrtjM-181">
          <mxGeometry y="120" width="180" height="30" as="geometry" />
        </mxCell>
        <mxCell id="dXiA9VWXQi0BpHhHrtjM-189" value="" style="shape=partialRectangle;connectable=0;fillColor=none;top=0;left=0;bottom=0;right=0;editable=1;overflow=hidden;" vertex="1" parent="dXiA9VWXQi0BpHhHrtjM-188">
          <mxGeometry width="30" height="30" as="geometry" />
        </mxCell>
        <mxCell id="dXiA9VWXQi0BpHhHrtjM-190" value="Заработная плата" style="shape=partialRectangle;connectable=0;fillColor=none;top=0;left=0;bottom=0;right=0;align=left;spacingLeft=6;overflow=hidden;" vertex="1" parent="dXiA9VWXQi0BpHhHrtjM-188">
          <mxGeometry x="30" width="150" height="30" as="geometry" />
        </mxCell>
        <mxCell id="dXiA9VWXQi0BpHhHrtjM-241" value="" style="edgeStyle=entityRelationEdgeStyle;fontSize=12;html=1;endArrow=ERoneToMany;startArrow=ERzeroToOne;" edge="1" parent="1" source="dXiA9VWXQi0BpHhHrtjM-169" target="dXiA9VWXQi0BpHhHrtjM-204">
          <mxGeometry width="100" height="100" relative="1" as="geometry">
            <mxPoint x="300" y="460" as="sourcePoint" />
            <mxPoint x="400" y="360" as="targetPoint" />
          </mxGeometry>
        </mxCell>
        <mxCell id="dXiA9VWXQi0BpHhHrtjM-252" value="0,1" style="text;html=1;align=center;verticalAlign=middle;resizable=0;points=[];autosize=1;" vertex="1" parent="1">
          <mxGeometry x="290" y="80" width="30" height="20" as="geometry" />
        </mxCell>
        <mxCell id="dXiA9VWXQi0BpHhHrtjM-253" value="1,n" style="text;html=1;align=center;verticalAlign=middle;resizable=0;points=[];autosize=1;" vertex="1" parent="1">
          <mxGeometry x="305" y="260" width="30" height="20" as="geometry" />
        </mxCell>
        <mxCell id="dXiA9VWXQi0BpHhHrtjM-254" value="" style="edgeStyle=entityRelationEdgeStyle;fontSize=12;html=1;endArrow=ERoneToMany;startArrow=ERzeroToOne;entryX=0;entryY=0.125;entryDx=0;entryDy=0;entryPerimeter=0;exitX=1.008;exitY=0.881;exitDx=0;exitDy=0;exitPerimeter=0;" edge="1" parent="1" source="dXiA9VWXQi0BpHhHrtjM-130" target="dXiA9VWXQi0BpHhHrtjM-194">
          <mxGeometry width="100" height="100" relative="1" as="geometry">
            <mxPoint x="270" y="100" as="sourcePoint" />
            <mxPoint x="370" y="170" as="targetPoint" />
          </mxGeometry>
        </mxCell>
        <mxCell id="dXiA9VWXQi0BpHhHrtjM-255" value="Занимаются с" style="text;html=1;align=center;verticalAlign=middle;resizable=0;points=[];autosize=1;rotation=90;" vertex="1" parent="1">
          <mxGeometry x="620" y="140" width="90" height="20" as="geometry" />
        </mxCell>
        <mxCell id="dXiA9VWXQi0BpHhHrtjM-256" value="0,1&lt;br&gt;" style="text;html=1;align=center;verticalAlign=middle;resizable=0;points=[];autosize=1;" vertex="1" parent="1">
          <mxGeometry x="620" y="40" width="30" height="20" as="geometry" />
        </mxCell>
        <mxCell id="dXiA9VWXQi0BpHhHrtjM-257" value="1,n" style="text;html=1;align=center;verticalAlign=middle;resizable=0;points=[];autosize=1;" vertex="1" parent="1">
          <mxGeometry x="510" y="280" width="30" height="20" as="geometry" />
        </mxCell>
        <mxCell id="dXiA9VWXQi0BpHhHrtjM-258" value="1,n" style="text;html=1;align=center;verticalAlign=middle;resizable=0;points=[];autosize=1;" vertex="1" parent="1">
          <mxGeometry x="510" y="310" width="30" height="20" as="geometry" />
        </mxCell>
        <mxCell id="dXiA9VWXQi0BpHhHrtjM-259" value="0,n" style="text;html=1;align=center;verticalAlign=middle;resizable=0;points=[];autosize=1;" vertex="1" parent="1">
          <mxGeometry x="620" y="390" width="30" height="20" as="geometry" />
        </mxCell>
        <mxCell id="dXiA9VWXQi0BpHhHrtjM-260" value="Посещает" style="text;html=1;align=center;verticalAlign=middle;resizable=0;points=[];autosize=1;rotation=45;" vertex="1" parent="1">
          <mxGeometry x="550" y="350" width="70" height="20" as="geometry" />
        </mxCell>
        <mxCell id="dXiA9VWXQi0BpHhHrtjM-261" value="Питается в" style="text;html=1;align=center;verticalAlign=middle;resizable=0;points=[];autosize=1;rotation=90;" vertex="1" parent="1">
          <mxGeometry x="510" y="520" width="80" height="20" as="geometry" />
        </mxCell>
        <mxCell id="dXiA9VWXQi0BpHhHrtjM-262" value="1,n" style="text;html=1;align=center;verticalAlign=middle;resizable=0;points=[];autosize=1;" vertex="1" parent="1">
          <mxGeometry x="505" y="370" width="30" height="20" as="geometry" />
        </mxCell>
        <mxCell id="dXiA9VWXQi0BpHhHrtjM-263" value="0,1" style="text;html=1;align=center;verticalAlign=middle;resizable=0;points=[];autosize=1;" vertex="1" parent="1">
          <mxGeometry x="540" y="650" width="30" height="20" as="geometry" />
        </mxCell>
        <mxCell id="dXiA9VWXQi0BpHhHrtjM-264" value="Повара работают в" style="text;html=1;align=center;verticalAlign=middle;resizable=0;points=[];autosize=1;rotation=0;" vertex="1" parent="1">
          <mxGeometry x="330" y="720" width="120" height="20" as="geometry" />
        </mxCell>
        <mxCell id="dXiA9VWXQi0BpHhHrtjM-266" value="1,1" style="text;html=1;align=center;verticalAlign=middle;resizable=0;points=[];autosize=1;" vertex="1" parent="1">
          <mxGeometry x="540" y="720" width="30" height="20" as="geometry" />
        </mxCell>
        <mxCell id="dXiA9VWXQi0BpHhHrtjM-267" value="" style="edgeStyle=entityRelationEdgeStyle;fontSize=12;html=1;endArrow=ERoneToMany;startArrow=ERmandOne;" edge="1" parent="1" source="dXiA9VWXQi0BpHhHrtjM-175" target="dXiA9VWXQi0BpHhHrtjM-185">
          <mxGeometry width="100" height="100" relative="1" as="geometry">
            <mxPoint x="255" y="870" as="sourcePoint" />
            <mxPoint x="355" y="770" as="targetPoint" />
          </mxGeometry>
        </mxCell>
        <mxCell id="dXiA9VWXQi0BpHhHrtjM-168" value="Столовая" style="shape=table;startSize=30;container=1;collapsible=1;childLayout=tableLayout;fixedRows=1;rowLines=0;fontStyle=1;align=center;resizeLast=1;" vertex="1" parent="1">
          <mxGeometry x="570" y="630" width="160" height="160" as="geometry" />
        </mxCell>
        <mxCell id="dXiA9VWXQi0BpHhHrtjM-169" value="" style="shape=partialRectangle;collapsible=0;dropTarget=0;pointerEvents=0;fillColor=none;top=0;left=0;bottom=1;right=0;points=[[0,0.5],[1,0.5]];portConstraint=eastwest;" vertex="1" parent="dXiA9VWXQi0BpHhHrtjM-168">
          <mxGeometry y="30" width="160" height="30" as="geometry" />
        </mxCell>
        <mxCell id="dXiA9VWXQi0BpHhHrtjM-170" value="PK" style="shape=partialRectangle;connectable=0;fillColor=none;top=0;left=0;bottom=0;right=0;fontStyle=1;overflow=hidden;" vertex="1" parent="dXiA9VWXQi0BpHhHrtjM-169">
          <mxGeometry width="30" height="30" as="geometry" />
        </mxCell>
        <mxCell id="dXiA9VWXQi0BpHhHrtjM-171" value="Код столовой" style="shape=partialRectangle;connectable=0;fillColor=none;top=0;left=0;bottom=0;right=0;align=left;spacingLeft=6;fontStyle=5;overflow=hidden;" vertex="1" parent="dXiA9VWXQi0BpHhHrtjM-169">
          <mxGeometry x="30" width="130" height="30" as="geometry" />
        </mxCell>
        <mxCell id="dXiA9VWXQi0BpHhHrtjM-172" value="" style="shape=partialRectangle;collapsible=0;dropTarget=0;pointerEvents=0;fillColor=none;top=0;left=0;bottom=0;right=0;points=[[0,0.5],[1,0.5]];portConstraint=eastwest;" vertex="1" parent="dXiA9VWXQi0BpHhHrtjM-168">
          <mxGeometry y="60" width="160" height="30" as="geometry" />
        </mxCell>
        <mxCell id="dXiA9VWXQi0BpHhHrtjM-173" value="" style="shape=partialRectangle;connectable=0;fillColor=none;top=0;left=0;bottom=0;right=0;editable=1;overflow=hidden;" vertex="1" parent="dXiA9VWXQi0BpHhHrtjM-172">
          <mxGeometry width="30" height="30" as="geometry" />
        </mxCell>
        <mxCell id="dXiA9VWXQi0BpHhHrtjM-174" value="Время работы" style="shape=partialRectangle;connectable=0;fillColor=none;top=0;left=0;bottom=0;right=0;align=left;spacingLeft=6;overflow=hidden;" vertex="1" parent="dXiA9VWXQi0BpHhHrtjM-172">
          <mxGeometry x="30" width="130" height="30" as="geometry" />
        </mxCell>
        <mxCell id="dXiA9VWXQi0BpHhHrtjM-175" value="" style="shape=partialRectangle;collapsible=0;dropTarget=0;pointerEvents=0;fillColor=none;top=0;left=0;bottom=0;right=0;points=[[0,0.5],[1,0.5]];portConstraint=eastwest;" vertex="1" parent="dXiA9VWXQi0BpHhHrtjM-168">
          <mxGeometry y="90" width="160" height="50" as="geometry" />
        </mxCell>
        <mxCell id="dXiA9VWXQi0BpHhHrtjM-176" value="" style="shape=partialRectangle;connectable=0;fillColor=none;top=0;left=0;bottom=0;right=0;editable=1;overflow=hidden;" vertex="1" parent="dXiA9VWXQi0BpHhHrtjM-175">
          <mxGeometry width="30" height="50" as="geometry" />
        </mxCell>
        <mxCell id="dXiA9VWXQi0BpHhHrtjM-177" value="" style="shape=partialRectangle;connectable=0;fillColor=none;top=0;left=0;bottom=0;right=0;align=left;spacingLeft=6;overflow=hidden;" vertex="1" parent="dXiA9VWXQi0BpHhHrtjM-175">
          <mxGeometry x="30" width="130" height="50" as="geometry" />
        </mxCell>
        <mxCell id="dXiA9VWXQi0BpHhHrtjM-178" value="" style="shape=partialRectangle;collapsible=0;dropTarget=0;pointerEvents=0;fillColor=none;top=0;left=0;bottom=0;right=0;points=[[0,0.5],[1,0.5]];portConstraint=eastwest;" vertex="1" parent="dXiA9VWXQi0BpHhHrtjM-168">
          <mxGeometry y="140" width="160" height="20" as="geometry" />
        </mxCell>
        <mxCell id="dXiA9VWXQi0BpHhHrtjM-179" value="" style="shape=partialRectangle;connectable=0;fillColor=none;top=0;left=0;bottom=0;right=0;editable=1;overflow=hidden;" vertex="1" parent="dXiA9VWXQi0BpHhHrtjM-178">
          <mxGeometry width="30" height="20" as="geometry" />
        </mxCell>
        <mxCell id="dXiA9VWXQi0BpHhHrtjM-180" value="" style="shape=partialRectangle;connectable=0;fillColor=none;top=0;left=0;bottom=0;right=0;align=left;spacingLeft=6;overflow=hidden;" vertex="1" parent="dXiA9VWXQi0BpHhHrtjM-178">
          <mxGeometry x="30" width="130" height="20" as="geometry" />
        </mxCell>
        <mxCell id="dXiA9VWXQi0BpHhHrtjM-268" value="1,n" style="text;html=1;align=center;verticalAlign=middle;resizable=0;points=[];autosize=1;" vertex="1" parent="1">
          <mxGeometry x="265" y="720" width="30" height="20" as="geometry" />
        </mxCell>
        <mxCell id="dXiA9VWXQi0BpHhHrtjM-269" value="Обслуживают" style="text;html=1;align=center;verticalAlign=middle;resizable=0;points=[];autosize=1;rotation=-90;" vertex="1" parent="1">
          <mxGeometry x="235" y="520" width="90" height="20" as="geometry" />
        </mxCell>
        <mxCell id="dXiA9VWXQi0BpHhHrtjM-270" value="1,n&lt;br&gt;" style="text;html=1;align=center;verticalAlign=middle;resizable=0;points=[];autosize=1;" vertex="1" parent="1">
          <mxGeometry x="265" y="690" width="30" height="20" as="geometry" />
        </mxCell>
        <mxCell id="dXiA9VWXQi0BpHhHrtjM-271" value="" style="edgeStyle=entityRelationEdgeStyle;fontSize=12;html=1;endArrow=ERoneToMany;startArrow=ERoneToMany;entryX=0;entryY=0.667;entryDx=0;entryDy=0;entryPerimeter=0;" edge="1" parent="1" source="dXiA9VWXQi0BpHhHrtjM-181" target="dXiA9VWXQi0BpHhHrtjM-204">
          <mxGeometry width="100" height="100" relative="1" as="geometry">
            <mxPoint x="370" y="590" as="sourcePoint" />
            <mxPoint x="333" y="400" as="targetPoint" />
          </mxGeometry>
        </mxCell>
        <mxCell id="dXiA9VWXQi0BpHhHrtjM-273" value="1,n" style="text;html=1;align=center;verticalAlign=middle;resizable=0;points=[];autosize=1;" vertex="1" parent="1">
          <mxGeometry x="305" y="380" width="30" height="20" as="geometry" />
        </mxCell>
        <mxCell id="dXiA9VWXQi0BpHhHrtjM-274" value="1,n" style="text;html=1;align=center;verticalAlign=middle;resizable=0;points=[];autosize=1;" vertex="1" parent="1">
          <mxGeometry x="55" y="420" width="30" height="20" as="geometry" />
        </mxCell>
        <mxCell id="dXiA9VWXQi0BpHhHrtjM-275" value="1,n" style="text;html=1;align=center;verticalAlign=middle;resizable=0;points=[];autosize=1;" vertex="1" parent="1">
          <mxGeometry x="65" y="720" width="30" height="20" as="geometry" />
        </mxCell>
        <mxCell id="jCFAMXMoRxURqoBmrjNv-1" value="Мед. работники оказывают&lt;br&gt;" style="text;html=1;align=center;verticalAlign=middle;resizable=0;points=[];autosize=1;rotation=90;" vertex="1" parent="1">
          <mxGeometry x="10" y="530" width="170" height="20" as="geometry" />
        </mxCell>
        <mxCell id="jCFAMXMoRxURqoBmrjNv-2" value="Посещает&lt;br&gt;" style="text;html=1;align=center;verticalAlign=middle;resizable=0;points=[];autosize=1;rotation=-20;" vertex="1" parent="1">
          <mxGeometry x="140" y="360" width="70" height="20" as="geometry" />
        </mxCell>
        <mxCell id="jCFAMXMoRxURqoBmrjNv-3" value="0,n" style="text;html=1;align=center;verticalAlign=middle;resizable=0;points=[];autosize=1;" vertex="1" parent="1">
          <mxGeometry x="45" y="390" width="30" height="20" as="geometry" />
        </mxCell>
        <mxCell id="jCFAMXMoRxURqoBmrjNv-4" value="1,n" style="text;html=1;align=center;verticalAlign=middle;resizable=0;points=[];autosize=1;" vertex="1" parent="1">
          <mxGeometry x="305" y="310" width="30" height="20" as="geometry" />
        </mxCell>
        <mxCell id="dXiA9VWXQi0BpHhHrtjM-194" value="Клиент" style="shape=table;startSize=30;container=1;collapsible=1;childLayout=tableLayout;fixedRows=1;rowLines=0;fontStyle=1;align=center;resizeLast=1;" vertex="1" parent="1">
          <mxGeometry x="330" y="260" width="180" height="160" as="geometry" />
        </mxCell>
        <mxCell id="dXiA9VWXQi0BpHhHrtjM-195" value="" style="shape=partialRectangle;collapsible=0;dropTarget=0;pointerEvents=0;fillColor=none;top=0;left=0;bottom=1;right=0;points=[[0,0.5],[1,0.5]];portConstraint=eastwest;" vertex="1" parent="dXiA9VWXQi0BpHhHrtjM-194">
          <mxGeometry y="30" width="180" height="30" as="geometry" />
        </mxCell>
        <mxCell id="dXiA9VWXQi0BpHhHrtjM-196" value="" style="shape=partialRectangle;connectable=0;fillColor=none;top=0;left=0;bottom=0;right=0;fontStyle=1;overflow=hidden;" vertex="1" parent="dXiA9VWXQi0BpHhHrtjM-195">
          <mxGeometry width="30" height="30" as="geometry" />
        </mxCell>
        <mxCell id="dXiA9VWXQi0BpHhHrtjM-197" value="Код клиента" style="shape=partialRectangle;connectable=0;fillColor=none;top=0;left=0;bottom=0;right=0;align=left;spacingLeft=6;fontStyle=5;overflow=hidden;" vertex="1" parent="dXiA9VWXQi0BpHhHrtjM-195">
          <mxGeometry x="30" width="150" height="30" as="geometry" />
        </mxCell>
        <mxCell id="dXiA9VWXQi0BpHhHrtjM-198" value="" style="shape=partialRectangle;collapsible=0;dropTarget=0;pointerEvents=0;fillColor=none;top=0;left=0;bottom=0;right=0;points=[[0,0.5],[1,0.5]];portConstraint=eastwest;" vertex="1" parent="dXiA9VWXQi0BpHhHrtjM-194">
          <mxGeometry y="60" width="180" height="30" as="geometry" />
        </mxCell>
        <mxCell id="dXiA9VWXQi0BpHhHrtjM-199" value="" style="shape=partialRectangle;connectable=0;fillColor=none;top=0;left=0;bottom=0;right=0;editable=1;overflow=hidden;" vertex="1" parent="dXiA9VWXQi0BpHhHrtjM-198">
          <mxGeometry width="30" height="30" as="geometry" />
        </mxCell>
        <mxCell id="dXiA9VWXQi0BpHhHrtjM-200" value="ФИО" style="shape=partialRectangle;connectable=0;fillColor=none;top=0;left=0;bottom=0;right=0;align=left;spacingLeft=6;overflow=hidden;" vertex="1" parent="dXiA9VWXQi0BpHhHrtjM-198">
          <mxGeometry x="30" width="150" height="30" as="geometry" />
        </mxCell>
        <mxCell id="dXiA9VWXQi0BpHhHrtjM-201" value="" style="shape=partialRectangle;collapsible=0;dropTarget=0;pointerEvents=0;fillColor=none;top=0;left=0;bottom=0;right=0;points=[[0,0.5],[1,0.5]];portConstraint=eastwest;" vertex="1" parent="dXiA9VWXQi0BpHhHrtjM-194">
          <mxGeometry y="90" width="180" height="30" as="geometry" />
        </mxCell>
        <mxCell id="dXiA9VWXQi0BpHhHrtjM-202" value="" style="shape=partialRectangle;connectable=0;fillColor=none;top=0;left=0;bottom=0;right=0;editable=1;overflow=hidden;" vertex="1" parent="dXiA9VWXQi0BpHhHrtjM-201">
          <mxGeometry width="30" height="30" as="geometry" />
        </mxCell>
        <mxCell id="dXiA9VWXQi0BpHhHrtjM-203" value="Возрастная категория" style="shape=partialRectangle;connectable=0;fillColor=none;top=0;left=0;bottom=0;right=0;align=left;spacingLeft=6;overflow=hidden;" vertex="1" parent="dXiA9VWXQi0BpHhHrtjM-201">
          <mxGeometry x="30" width="150" height="30" as="geometry" />
        </mxCell>
        <mxCell id="dXiA9VWXQi0BpHhHrtjM-204" value="" style="shape=partialRectangle;collapsible=0;dropTarget=0;pointerEvents=0;fillColor=none;top=0;left=0;bottom=0;right=0;points=[[0,0.5],[1,0.5]];portConstraint=eastwest;" vertex="1" parent="dXiA9VWXQi0BpHhHrtjM-194">
          <mxGeometry y="120" width="180" height="30" as="geometry" />
        </mxCell>
        <mxCell id="dXiA9VWXQi0BpHhHrtjM-205" value="" style="shape=partialRectangle;connectable=0;fillColor=none;top=0;left=0;bottom=0;right=0;editable=1;overflow=hidden;" vertex="1" parent="dXiA9VWXQi0BpHhHrtjM-204">
          <mxGeometry width="30" height="30" as="geometry" />
        </mxCell>
        <mxCell id="dXiA9VWXQi0BpHhHrtjM-206" value="Род занятий" style="shape=partialRectangle;connectable=0;fillColor=none;top=0;left=0;bottom=0;right=0;align=left;spacingLeft=6;overflow=hidden;" vertex="1" parent="dXiA9VWXQi0BpHhHrtjM-204">
          <mxGeometry x="30" width="150" height="30" as="geometry" />
        </mxCell>
        <mxCell id="jCFAMXMoRxURqoBmrjNv-8" value="Посещают" style="text;html=1;align=center;verticalAlign=middle;resizable=0;points=[];autosize=1;rotation=90;" vertex="1" parent="1">
          <mxGeometry x="285" y="140" width="70" height="20" as="geometry" />
        </mxCell>
        <mxCell id="jCFAMXMoRxURqoBmrjNv-9" value="" style="edgeStyle=entityRelationEdgeStyle;fontSize=12;html=1;endArrow=ERoneToMany;startArrow=ERmandOne;exitX=1.007;exitY=0.128;exitDx=0;exitDy=0;exitPerimeter=0;" edge="1" parent="1" source="dXiA9VWXQi0BpHhHrtjM-129">
          <mxGeometry width="100" height="100" relative="1" as="geometry">
            <mxPoint x="340" y="160" as="sourcePoint" />
            <mxPoint x="440" y="60" as="targetPoint" />
          </mxGeometry>
        </mxCell>
        <mxCell id="jCFAMXMoRxURqoBmrjNv-10" value="1,1" style="text;html=1;align=center;verticalAlign=middle;resizable=0;points=[];autosize=1;" vertex="1" parent="1">
          <mxGeometry x="275" y="40" width="30" height="20" as="geometry" />
        </mxCell>
        <mxCell id="jCFAMXMoRxURqoBmrjNv-11" value="Работает в&amp;nbsp;" style="text;html=1;align=center;verticalAlign=middle;resizable=0;points=[];autosize=1;" vertex="1" parent="1">
          <mxGeometry x="320" y="40" width="80" height="20" as="geometry" />
        </mxCell>
        <mxCell id="jCFAMXMoRxURqoBmrjNv-12" value="1,n" style="text;html=1;align=center;verticalAlign=middle;resizable=0;points=[];autosize=1;" vertex="1" parent="1">
          <mxGeometry x="405" y="40" width="30" height="20" as="geometry" />
        </mxCell>
      </root>
    </mxGraphModel>
  </diagram>
</mxfile>
